# xmcd
#
# Track frame offsets:
#	187
#	15245
#	27382
#	44040
#	61230
#	75240
#	89342
#	104562
#	122387
#	140380
#	154247
#
# Disc length: 2223
#
# Revision: 4
# Processed by: cddbd v1.5.1PL0 Copyright (c) Steve Scherf et al.
# Submitted via: inCDius 1.1
# Normalized: r2:DSETVAR1,TSWAP
#
DISCID=8208ad0b
DTITLE=Various Artist - Today's Top Country
DYEAR=1900
DGENRE=
TTITLE0=Alabama - Born Country
TTITLE1=Randy Travis - Better Class Of Losers
TTITLE2=Mark Collie - Even The Man In The Moon Is Cryin'
TTITLE3=Trisha Yearwood - The Woman Before Me
TTITLE4=Mark Chestnut - Bubba Shot The Jukebox
TTITLE5=George Strait - Love Without End, Amen
TTITLE6=Marty Stuart - Now That's Country
TTITLE7=Michelle Wright - Take Like A Man
TTITLE8=Vince Gill - Never Knew Lonely
TTITLE9=Diamond Rio - Norma Jean Riley
TTITLE10=Paul Hale - Born To Roam
EXTD=
EXTT0=Alabama
EXTT1=RANDY TRAVIS
EXTT2=MARK COLLIE
EXTT3=TRISHA YEARWOOD
EXTT4=MARK CHESNUTT
EXTT5=GEORGE STRAIT
EXTT6=MARTY STUART
EXTT7=MICHELLE WRIGHT
EXTT8=VINCE GILL
EXTT9=DIAMOND RIO
EXTT10=PAUL HALE
PLAYORDER=
